<svg xmlns="http://www.w3.org/2000/svg" width="217.819" height="80" viewBox="0 0 217.819 80">
  <g id="logo" transform="translate(-123 -51)">
    <g id="Grupo_7" data-name="Grupo 7" transform="translate(153.369 64.218)">
      <path id="Trazado_14" data-name="Trazado 14" d="M5.951,3.319.36-16.8H4.5L8.318-1.884,12.483-16.8h3.366L20.042-1.884,23.865-16.8H28L22.41,3.319H17.931L14.166-9.96,10.429,3.319ZM30.283-16.8h3.936V3.319H30.283Zm18.6,20.119L44.859-3.665h-3V3.319H37.927V-16.8h7.987a6.384,6.384,0,0,1,4.707,1.954,6.448,6.448,0,0,1,1.94,4.714,6.153,6.153,0,0,1-1.055,3.463,6.621,6.621,0,0,1-2.8,2.4l4.421,7.588ZM41.864-13.092v5.949h4.051a2.5,2.5,0,0,0,1.911-.877,3.026,3.026,0,0,0,.8-2.112,2.975,2.975,0,0,0-.8-2.1,2.516,2.516,0,0,0-1.911-.862ZM68.221-16.8v3.794H62.83V3.319H58.893V-13.006H53.53V-16.8ZM77.862,3.721a7.948,7.948,0,0,1-5.477-1.9,6.46,6.46,0,0,1-2.139-5.087V-16.8h3.908V-3.579a3.424,3.424,0,0,0,.9,2.5,3.78,3.78,0,0,0,2.81.92,3.78,3.78,0,0,0,2.81-.92,3.424,3.424,0,0,0,.9-2.5V-16.8h3.936V-3.263a6.46,6.46,0,0,1-2.139,5.087A7.989,7.989,0,0,1,77.862,3.721Zm23.447-.4L100.112-.3H92.153l-1.2,3.621H86.7L93.694-16.8h4.878l7.017,20.119Zm-7.9-7.329h5.477l-2.738-8.22ZM111.465-.475h7.616V3.319H107.528V-16.8h3.936ZM132.858-16.8h3.936V3.319h-3l-8.557-12.3v12.3h-3.936V-16.8h3l8.557,12.272Zm23.447,0L149.46-4.528V3.319h-3.908V-4.528L138.734-16.8h4.45l4.336,8.392,4.336-8.392Z" transform="translate(-0.36 16.8)" fill="#fff"/>
      <path id="Trazado_13" data-name="Trazado 13" d="M9.371-17.431A6.878,6.878,0,0,1,14.417-15.4a6.776,6.776,0,0,1,2.048,5,6.776,6.776,0,0,1-2.048,5A6.878,6.878,0,0,1,9.371-3.36H5.721V3.526h-4.1V-17.431Zm0,10.209a2.851,2.851,0,0,0,2.167-.913A3.169,3.169,0,0,0,12.4-10.4a3.156,3.156,0,0,0-.861-2.275,2.874,2.874,0,0,0-2.167-.9H5.721v6.347ZM30.385,3.526,29.138-.246H20.857L19.611,3.526H15.189L22.46-17.431h5.075l7.3,20.957ZM22.163-4.108h5.7l-2.849-8.562ZM48.252,3.526,44.067-3.749H40.951V3.526h-4.1V-17.431h8.31a6.639,6.639,0,0,1,4.9,2.036,6.721,6.721,0,0,1,2.018,4.91,6.415,6.415,0,0,1-1.1,3.608,6.892,6.892,0,0,1-2.909,2.5l4.6,7.9Zm-7.3-17.095v6.2h4.215a2.6,2.6,0,0,0,1.989-.913,3.154,3.154,0,0,0,.831-2.2,3.1,3.1,0,0,0-.831-2.186,2.617,2.617,0,0,0-1.989-.9ZM68.434,3.526,67.188-.246H58.907L57.66,3.526H53.238L60.51-17.431h5.075l7.3,20.957ZM60.213-4.108h5.7l-2.849-8.562ZM94.552-7.731v1.617A9.718,9.718,0,0,1,91.7,1.161a10.087,10.087,0,0,1-7.361,2.784A10.808,10.808,0,0,1,76.373.787a10.485,10.485,0,0,1-3.161-7.709,10.621,10.621,0,0,1,3.131-7.754A10.468,10.468,0,0,1,84.1-17.85a10.775,10.775,0,0,1,5.313,1.332,9.824,9.824,0,0,1,3.74,3.548l-3.5,2.036a5.531,5.531,0,0,0-2.241-2.1,6.92,6.92,0,0,0-3.339-.808,6.53,6.53,0,0,0-4.882,1.961,6.8,6.8,0,0,0-1.914,4.955,6.609,6.609,0,0,0,1.944,4.895A6.987,6.987,0,0,0,84.372-.1,6.827,6.827,0,0,0,88.3-1.159a5.283,5.283,0,0,0,2.122-2.919H84.135V-7.731ZM114.942.8a10.426,10.426,0,0,1-7.657,3.144A10.352,10.352,0,0,1,99.642.787a10.571,10.571,0,0,1-3.131-7.739,10.571,10.571,0,0,1,3.131-7.739,10.352,10.352,0,0,1,7.643-3.159,10.4,10.4,0,0,1,7.657,3.159,10.545,10.545,0,0,1,3.146,7.739A10.6,10.6,0,0,1,114.942.8ZM102.506-2.013A6.513,6.513,0,0,0,107.285-.1a6.486,6.486,0,0,0,4.778-1.931,6.674,6.674,0,0,0,1.929-4.925,6.724,6.724,0,0,0-1.929-4.94,6.461,6.461,0,0,0-4.778-1.946,6.461,6.461,0,0,0-4.778,1.946,6.724,6.724,0,0,0-1.929,4.94A6.724,6.724,0,0,0,102.506-2.013Zm30.481-15.418h4.1V3.526h-3.116l-8.9-12.814V3.526h-4.1V-17.431h3.116l8.9,12.784Z" transform="translate(9.47 46.531)" fill="#fff"/>
    </g>
    <g id="Trazado_8" data-name="Trazado 8" transform="translate(123 51)" fill="none">
      <path d="M0,0H217.819L207.447,13.333l10.372,13.333L207.447,40l10.372,13.333L207.447,66.667,217.819,80H0L11.336,66.667,0,53.333,11.336,40,0,26.667,11.336,13.333Z" stroke="none"/>
      <path d="M 6.488265991210938 3 L 13.62150573730469 11.39012145996094 L 15.27362060546875 13.33332061767578 L 13.62150573730469 15.27652740478516 L 3.93768310546875 26.66667556762695 L 13.62150573730469 38.05679321289062 L 15.27362060546875 40 L 13.62150573730469 41.94320678710938 L 3.93768310546875 53.33335113525391 L 13.62150573730469 64.72347259521484 L 15.27362060546875 66.66667938232422 L 13.62150573730469 68.60987854003906 L 6.488265991210938 77 L 211.6848449707031 77 L 205.0792388916016 68.50870513916016 L 203.6462707519531 66.66667938232422 L 205.0792388916016 64.82464599609375 L 214.0186309814453 53.33335113525391 L 205.0792388916016 41.8420295715332 L 203.6462707519531 40 L 205.0792388916016 38.1579704284668 L 214.0186309814453 26.66667556762695 L 205.0792388916016 15.17535400390625 L 203.6462707519531 13.33332061767578 L 205.0792388916016 11.49129486083984 L 211.6848449707031 3 L 6.488265991210938 3 M 0 0 L 217.8194732666016 0 L 207.4471130371094 13.33332061767578 L 217.8194732666016 26.66667556762695 L 207.4471130371094 40 L 217.8194732666016 53.33335113525391 L 207.4471130371094 66.66667938232422 L 217.8194732666016 80 L 0 80 L 11.33590698242188 66.66667938232422 L 0 53.33335113525391 L 11.33590698242188 40 L 0 26.66667556762695 L 11.33590698242188 13.33332061767578 L 0 0 Z" stroke="none" fill="#fff"/>
    </g>
  </g>
</svg>
